<svg xmlns="http://www.w3.org/2000/svg" version="1.1" xmlns:xlink="http://www.w3.org/1999/xlink" xmlns:svgjs="http://svgjs.dev/svgjs" width="100%" height="100%" viewBox="0 0 1000 600"><rect width="1000" height="600" x="0" y="0" fill="#000000"/><g><circle r="166.66666666666666" cx="299.1294504801432" cy="321.3516906605523" fill="#DBBF" transform="matrix(0.9436611127506953,0,0,0.9436611127506951,0,-3.2471094398661506)"/><path d="M294.85573086989893 396.35169381759755Q265.4178327334415 396.35169381759755 245.1937649192218 385.515302180752L245.1937649192218 385.515302180752L255.62451622741537 353.1799731253519Q277.1234536459699 360.88713936973943 294.01547590340556 360.88713936973943L294.01547590340556 360.88713936973943Q303.2003319164538 360.88713936973943 307.4595553672995 358.7140661805324Q311.74775312733465 356.512018682136 311.74775312733465 352.1368979945326L311.74775312733465 352.1368979945326Q311.74775312733465 349.21049276640053 309.45878270136996 347.0084452680041Q307.1408379662158 344.83537207879715 300.2739266883217 342.111787014991Q293.3780411012382 339.41717626037433 279.61524423626054 335.4476959014229L279.61524423626054 335.4476959014229Q262.7232219788249 330.43514041165207 253.33554580145068 319.07721120939686Q243.94786962407647 307.6903076979522 243.94786962407647 292.88443570215526L243.94786962407647 292.88443570215526Q243.94786962407647 269.9367828241294 259.0724590209571 258.14423898403277Q274.1970484178378 246.35169514393618 299.8393120504803 246.35169514393618L299.8393120504803 246.35169514393618Q313.19646858680596 246.35169514393618 326.1479847944796 249.19117744449997Q339.0705266929639 252.00168543587435 349.0956376725055 257.41988125429714L349.0956376725055 257.41988125429714L337.82463139781856 288.9149553432038Q326.1479847944796 284.94547498425237 317.4846663468411 283.17804212369737Q308.8213478992026 281.4106092631423 300.6795670169737 281.4106092631423L300.6795670169737 281.4106092631423Q286.91677015199605 281.4106092631423 286.91677015199605 288.9149553432038L286.91677015199605 288.9149553432038Q286.91677015199605 292.68161553782926 291.4077880763572 295.28930336487764Q295.8988060007183 297.8969911919261 309.86442303002195 301.86647155087746L309.86442303002195 301.86647155087746Q331.76900077722837 307.6903076979522 343.0400070519154 319.68567170237486Q354.3110133266023 331.68103570679745 354.3110133266023 348.37023779990716L354.3110133266023 348.37023779990716Q354.3110133266023 371.52071084225895 339.2733468572899 383.95068948452297Q324.264654697167 396.35169381759755 294.85573086989893 396.35169381759755L294.85573086989893 396.35169381759755Z " fill="#ffffff" transform="matrix(0.9436611127506953,0,0,0.9436611127506951,0,-3.2471094398661506)"/><path d="M584.2009066914629 396.35168957740484Q568.1871433557576 396.35168957740484 559.2406111120082 386.0552367880009Q550.2940788682588 375.75878399859704 550.2940788682588 358.02453369294L550.2940788682588 358.02453369294L550.2940788682588 299.34269350242994L590.6858191166658 299.34269350242994L590.6858191166658 356.3305157532951Q590.6858191166658 360.697905753942 593.0680318442915 363.0801184815676Q595.450244571917 365.46233120919317 599.2617849361179 365.46233120919317L599.2617849361179 365.46233120919317Q603.0733253003189 365.46233120919317 607.0701488766683 363.1859946027954L607.0701488766683 363.1859946027954L609.1612022709176 389.6814939400532Q604.9790954824193 392.9107156375012 598.2030237238398 394.631202607453Q591.4534209955674 396.35168957740484 584.2009066914629 396.35168957740484L584.2009066914629 396.35168957740484ZM570.4899489924624 285.0494171366765Q561.516947718406 285.0494171366765 555.3231946265795 279.41151368129596Q549.1294415347529 273.8000792562224 549.1294415347529 265.5946798610676L549.1294415347529 265.5946798610676Q549.1294415347529 257.4157494962198 555.6143539599559 251.88372216206707Q562.0992663851589 246.35169482791434 570.4899489924624 246.35169482791434L570.4899489924624 246.35169482791434Q579.2511980240631 246.35169482791434 585.6302343280381 252.06900537421575Q592.0092706320133 257.7863159205171 592.0092706320133 265.5946798610676L592.0092706320133 265.5946798610676Q592.0092706320133 273.985362468371 585.5508272371173 279.5173898025238Q579.0659148119144 285.0494171366765 570.4899489924624 285.0494171366765L570.4899489924624 285.0494171366765ZM620.225256939223 394.81648581960167L620.225256939223 300.66614501777747L658.5259437933809 300.66614501777747L658.5259437933809 320.12088229338633Q665.0108562185837 308.8715444129323 673.2956627046594 303.44539320000735Q681.580469190735 297.99277295677547 693.0150902833378 297.99277295677547L693.0150902833378 297.99277295677547Q704.2644281637919 297.99277295677547 712.5492346498676 303.630676412156Q720.86051016625 309.2421108372296 725.0426169547483 318.77096174773186L725.0426169547483 318.77096174773186Q737.2448399262527 297.99277295677547 760.4846485357555 297.99277295677547L760.4846485357555 297.99277295677547Q771.5487032040609 297.99277295677547 779.8335096901366 303.92183574553246Q788.1183161762121 309.8244295039825 792.6974584193147 320.9678912632088Q797.2766006624171 332.1113530224351 797.2766006624171 347.1722312670901L797.2766006624171 347.1722312670901L797.2766006624171 394.81648581960167L757.0701436261588 394.81648581960167L757.0701436261588 347.1722312670901Q757.0701436261588 337.4580971444392 753.7350458074831 332.5083884770394Q750.3999479888072 327.5322107793326 744.4708852000502 327.5322107793326L744.4708852000502 327.5322107793326Q738.0124418051543 327.5322107793326 733.327423440824 333.0642381134853Q728.6688741068006 338.5962654476381 728.6688741068006 346.40462938818854L728.6688741068006 346.40462938818854L728.6688741068006 394.81648581960167L688.8329834948396 394.81648581960167L688.8329834948396 347.1722312670901Q688.8329834948396 337.4580971444392 685.4978856761637 332.5083884770394Q682.162787857488 327.5322107793326 676.0749108868893 327.5322107793326L676.0749108868893 327.5322107793326Q669.5899984616863 327.5322107793326 665.0108562185837 333.0642381134853Q660.4317139754813 338.5962654476381 660.4317139754813 346.40462938818854L660.4317139754813 346.40462938818854L660.4317139754813 394.81648581960167L620.225256939223 394.81648581960167ZM849.2882452155756 396.35168957740484Q833.3009509101772 396.35168957740484 824.3279496361209 386.0552367880009Q815.3814173923715 375.75878399859704 815.3814173923715 358.02453369294L815.3814173923715 358.02453369294L815.3814173923715 299.34269350242994L855.7731576407785 299.34269350242994L855.7731576407785 356.3305157532951Q855.7731576407785 360.697905753942 858.1553703684041 363.0801184815676Q860.5375830960296 365.46233120919317 864.3491234602305 365.46233120919317L864.3491234602305 365.46233120919317Q868.1606638244315 365.46233120919317 872.1574874007812 363.1859946027954L872.1574874007812 363.1859946027954L874.2750098253372 389.6814939400532Q870.066434006532 392.9107156375012 863.3168312782594 394.631202607453Q856.5407595196801 396.35168957740484 849.2882452155756 396.35168957740484L849.2882452155756 396.35168957740484ZM835.577287516575 285.0494171366765Q826.6307552728257 285.0494171366765 820.4370021809991 279.41151368129596Q814.2432490891727 273.8000792562224 814.2432490891727 265.5946798610676L814.2432490891727 265.5946798610676Q814.2432490891727 257.4157494962198 820.7016924840688 251.88372216206707Q827.1866049092716 246.35169482791434 835.577287516575 246.35169482791434L835.577287516575 246.35169482791434Q844.3385365481757 246.35169482791434 850.717572852151 252.06900537421575Q857.123078186433 257.7863159205171 857.123078186433 265.5946798610676L857.123078186433 265.5946798610676Q857.123078186433 273.985362468371 850.6381657612301 279.5173898025238Q844.1532533360272 285.0494171366765 835.577287516575 285.0494171366765L835.577287516575 285.0494171366765ZM905.9055010421433 395.95465412280055Q895.7943314648882 395.95465412280055 890.0770209185869 390.4226267886478Q884.3597103722853 384.91706848480203 884.3597103722853 376.5263858774986L884.3597103722853 376.5263858774986Q884.3597103722853 367.9504200580466 890.2623041307355 362.60367593604246Q896.1913669194925 357.28340084434535 905.9055010421433 357.28340084434535L905.9055010421433 357.28340084434535Q915.4343519526457 357.28340084434535 921.3369457110957 362.89483526941893Q927.2395394695458 368.5062696944925 927.2395394695458 376.5263858774986L927.2395394695458 376.5263858774986Q927.2395394695458 385.472918121248 921.7075121353931 390.71378612202426Q916.2019538315473 395.95465412280055 905.9055010421433 395.95465412280055L905.9055010421433 395.95465412280055Z " fill="#ffffff" transform="matrix(0.9436611127506953,0,0,0.9436611127506951,0,-3.2471094398661506)"/></g></svg>